<svg width="30" height="30" viewBox="0 0 24 24" fill="none" xmlns="http://www.w3.org/2000/svg">
<g clip-path="url(#clip0_34_2)">
<path d="M12.9399 12L18.4666 6.47329C18.5758 6.34576 18.6329 6.18171 18.6264 6.01393C18.6199 5.84614 18.5504 5.68698 18.4317 5.56825C18.3129 5.44952 18.1538 5.37997 17.986 5.37349C17.8182 5.36701 17.6541 5.42408 17.5266 5.53329L11.9999 11.06L6.47327 5.52663C6.34774 5.40109 6.17748 5.33057 5.99994 5.33057C5.82241 5.33057 5.65214 5.40109 5.52661 5.52663C5.40107 5.65216 5.33055 5.82243 5.33055 5.99996C5.33055 6.1775 5.40107 6.34776 5.52661 6.47329L11.0599 12L5.52661 17.5266C5.45682 17.5864 5.40014 17.6599 5.36012 17.7426C5.32011 17.8254 5.29762 17.9154 5.29408 18.0073C5.29053 18.0991 5.306 18.1906 5.33952 18.2762C5.37303 18.3617 5.42387 18.4394 5.48884 18.5044C5.55381 18.5694 5.63151 18.6202 5.71706 18.6537C5.80261 18.6872 5.89416 18.7027 5.98598 18.6992C6.07779 18.6956 6.16788 18.6731 6.25059 18.6331C6.3333 18.5931 6.40684 18.5364 6.46661 18.4666L11.9999 12.94L17.5266 18.4666C17.6541 18.5758 17.8182 18.6329 17.986 18.6264C18.1538 18.62 18.3129 18.5504 18.4317 18.4317C18.5504 18.3129 18.6199 18.1538 18.6264 17.986C18.6329 17.8182 18.5758 17.6542 18.4666 17.5266L12.9399 12Z" fill="black"/>
</g>
<defs>
<clipPath id="clip0_34_2">
<rect width="24" height="24" fill="white"/>
</clipPath>
</defs>
</svg>
