<svg width="24" height="24" viewBox="0 0 24 24" fill="none" xmlns="http://www.w3.org/2000/svg">
<path d="M11.9999 17.3L8.29994 20.125C8.11661 20.275 7.91661 20.3456 7.69994 20.337C7.48327 20.329 7.29161 20.2666 7.12494 20.15C6.95827 20.0333 6.82927 19.875 6.73794 19.675C6.64594 19.475 6.64161 19.2583 6.72494 19.025L8.14994 14.4L4.52494 11.825C4.32494 11.6916 4.19994 11.5166 4.14994 11.3C4.09994 11.0833 4.10827 10.8833 4.17494 10.7C4.24161 10.5166 4.35827 10.354 4.52494 10.212C4.69161 10.0706 4.89161 9.99998 5.12494 9.99998H9.59994L11.0499 5.19998C11.1333 4.96664 11.2626 4.78731 11.4379 4.66198C11.6126 4.53731 11.7999 4.47498 11.9999 4.47498C12.1999 4.47498 12.3873 4.53731 12.5619 4.66198C12.7373 4.78731 12.8666 4.96664 12.9499 5.19998L14.3999 9.99998H18.8749C19.1083 9.99998 19.3083 10.0706 19.4749 10.212C19.6416 10.354 19.7583 10.5166 19.8249 10.7C19.8916 10.8833 19.8999 11.0833 19.8499 11.3C19.7999 11.5166 19.6749 11.6916 19.4749 11.825L15.8499 14.4L17.2749 19.025C17.3583 19.2583 17.3543 19.475 17.2629 19.675C17.1709 19.875 17.0416 20.0333 16.8749 20.15C16.7083 20.2666 16.5166 20.329 16.2999 20.337C16.0833 20.3456 15.8833 20.275 15.6999 20.125L11.9999 17.3Z" fill="black"/>
</svg>
