<svg width="20" height="20" viewBox="0 0 20 20" fill="none" xmlns="http://www.w3.org/2000/svg">
<path d="M16.5851 5.19608H13.6809V4.5098C13.6809 4.10938 13.5206 3.72535 13.2353 3.44221C12.95 3.15907 12.563 3 12.1596 3H8.84043C8.43696 3 8.05002 3.15907 7.76472 3.44221C7.47943 3.72535 7.31915 4.10938 7.31915 4.5098V5.19608H4.41489C4.30486 5.19608 4.19933 5.23946 4.12152 5.31668C4.04371 5.3939 4 5.49864 4 5.60784C4 5.71705 4.04371 5.82178 4.12152 5.899C4.19933 5.97623 4.30486 6.01961 4.41489 6.01961H5.10638V16.0392C5.10638 16.294 5.20838 16.5384 5.38993 16.7186C5.57148 16.8988 5.81772 17 6.07447 17H14.9255C15.1823 17 15.4285 16.8988 15.6101 16.7186C15.7916 16.5384 15.8936 16.294 15.8936 16.0392V6.01961H16.5851C16.6951 6.01961 16.8007 5.97623 16.8785 5.899C16.9563 5.82178 17 5.71705 17 5.60784C17 5.49864 16.9563 5.3939 16.8785 5.31668C16.8007 5.23946 16.6951 5.19608 16.5851 5.19608ZM8.14894 4.5098C8.14894 4.32779 8.22179 4.15324 8.35147 4.02453C8.48115 3.89583 8.65703 3.82353 8.84043 3.82353H12.1596C12.343 3.82353 12.5189 3.89583 12.6485 4.02453C12.7782 4.15324 12.8511 4.32779 12.8511 4.5098V5.19608H8.14894V4.5098ZM15.0638 16.0392C15.0638 16.0756 15.0493 16.1105 15.0233 16.1363C14.9974 16.162 14.9622 16.1765 14.9255 16.1765H6.07447C6.03779 16.1765 6.00261 16.162 5.97668 16.1363C5.95074 16.1105 5.93617 16.0756 5.93617 16.0392V6.01961H15.0638V16.0392ZM9.25532 8.90196V13.2941C9.25532 13.4033 9.21161 13.5081 9.1338 13.5853C9.05599 13.6625 8.95046 13.7059 8.84043 13.7059C8.73039 13.7059 8.62486 13.6625 8.54705 13.5853C8.46924 13.5081 8.42553 13.4033 8.42553 13.2941V8.90196C8.42553 8.79275 8.46924 8.68802 8.54705 8.6108C8.62486 8.53358 8.73039 8.4902 8.84043 8.4902C8.95046 8.4902 9.05599 8.53358 9.1338 8.6108C9.21161 8.68802 9.25532 8.79275 9.25532 8.90196ZM12.5745 8.90196V13.2941C12.5745 13.4033 12.5308 13.5081 12.4529 13.5853C12.3751 13.6625 12.2696 13.7059 12.1596 13.7059C12.0495 13.7059 11.944 13.6625 11.8662 13.5853C11.7884 13.5081 11.7447 13.4033 11.7447 13.2941V8.90196C11.7447 8.79275 11.7884 8.68802 11.8662 8.6108C11.944 8.53358 12.0495 8.4902 12.1596 8.4902C12.2696 8.4902 12.3751 8.53358 12.4529 8.6108C12.5308 8.68802 12.5745 8.79275 12.5745 8.90196Z" fill="black"/>
</svg>
